<svg xmlns="http://www.w3.org/2000/svg" width="24" height="24" viewBox="0 0 24 24">
  <path fill="#EAEAE5" d="M9.68586,11.19554 C9.68586,11.19554 11.95698,11.02682 11.95698,8.36343 C11.95698,5.69999 10.09879,4.40022 7.74508,4.40022 L3.41265,4.40022 L3.28537,4.40022 L0,4.40022 L0,19.28453 L3.28537,19.28453 L3.41265,19.28453 L7.74507,19.28453 C7.74507,19.28453 12.47315,19.43356 12.47315,14.89132 C12.47315,14.89132 12.67959,11.19554 9.68586,11.19554 Z M3.41265,7.04557 L7.18759,7.04557 L7.74508,7.04557 C7.74508,7.04557 8.79803,7.04557 8.79803,8.59408 C8.79803,10.14259 8.17862,10.36712 7.47666,10.36712 L3.41265,10.36712 L3.41265,7.04557 Z M7.54539,16.63918 L3.41265,16.63918 L3.41265,12.6614621 L7.74507,12.66147 C7.74507,12.66147 9.3142,12.64086 9.3142,14.70545 C9.3142,16.42691 8.16648,16.62191 7.54539,16.63918 Z M18.77907,8.1871 C24.80338,8.1871 23.95959,14.64808 23.95959,14.64809 L16.24711,14.64809 C16.24711,17.41313 18.8665,17.23794 18.8665,17.23794 C21.34023,17.23794 21.25297,15.63748 21.25297,15.63748 L23.87232,15.63748 C23.87232,19.88646 18.77923,19.59556 18.77923,19.59556 C12.66765,19.59556 13.06045,13.90575 13.06045,13.90575 C13.06045,13.90575 13.055354,8.1871 18.77907,8.1871 Z M21.1072892,12.66146 C21.1072892,12.66146 21.13652,10.36712 18.83729,10.36711 C16.5381,10.36711 16.21794,12.66146 16.21794,12.66146 L21.1072892,12.66146 Z M16,5 L22,5 L22,7 L16,7 L16,5 Z"/>
</svg>
