<svg xmlns="http://www.w3.org/2000/svg" width="24" height="24" viewBox="0 0 24 24">
  <g fill="#EAEAE5" transform="translate(1 1)">
    <path d="M11,1.98183333 C13.937,1.98183333 14.2853333,1.99283333 15.4449167,2.046 C16.6970833,2.10283333 17.8585,2.354 18.75225,3.24775 C19.646,4.1415 19.8971667,5.30291667 19.954,6.55508333 C20.0071667,7.71466667 20.0181667,8.063 20.0181667,11 C20.0181667,13.937 20.0071667,14.2853333 19.954,15.4449167 C19.8971667,16.6970833 19.646,17.8585 18.75225,18.75225 C17.8585,19.646 16.6970833,19.8971667 15.4449167,19.954 C14.2853333,20.0071667 13.937,20.0181667 11,20.0181667 C8.063,20.0181667 7.71466667,20.0071667 6.55508333,19.954 C5.30291667,19.8971667 4.1415,19.646 3.24775,18.75225 C2.354,17.8585 2.10283333,16.6970833 2.046,15.4449167 C1.99283333,14.2853333 1.98183333,13.937 1.98183333,11 C1.98183333,8.063 1.99283333,7.71466667 2.046,6.55508333 C2.10283333,5.30291667 2.354,4.1415 3.24775,3.24775 C4.1415,2.354 5.30291667,2.10283333 6.55508333,2.046 C7.71466667,1.99283333 8.063,1.98183333 11,1.98183333 Z M11,0 C8.01258333,0 7.63766667,0.0128333333 6.46433333,0.066 C4.67683333,0.147583333 3.10658333,0.58575 1.84616667,1.84616667 C0.58575,3.10658333 0.147583333,4.67683333 0.066,6.46433333 C0.0128333333,7.63766667 0,8.01258333 0,11 C0,13.9874167 0.0128333333,14.3623333 0.066,15.5356667 C0.147583333,17.3231667 0.58575,18.8934167 1.84616667,20.1538333 C3.10658333,21.41425 4.67683333,21.8524167 6.46433333,21.934 C7.63766667,21.9871667 8.01258333,22 11,22 C13.9874167,22 14.3623333,21.9871667 15.5356667,21.934 C17.3231667,21.8524167 18.8934167,21.41425 20.1538333,20.1538333 C21.41425,18.8934167 21.8524167,17.3231667 21.934,15.5356667 C21.9871667,14.3623333 22,13.9874167 22,11 C22,8.01258333 21.9871667,7.63766667 21.934,6.46433333 C21.8524167,4.67683333 21.41425,3.10658333 20.1538333,1.84616667 C18.8934167,0.58575 17.3231667,0.147583333 15.5356667,0.066 C14.3623333,0.0128333333 13.9874167,0 11,0 Z"/>
    <path d="M11,5.3515 C7.88058333,5.3515 5.3515,7.88058333 5.3515,11 C5.3515,14.1194167 7.88058333,16.6485 11,16.6485 C14.1194167,16.6485 16.6485,14.1194167 16.6485,11 C16.6485,7.88058333 14.1194167,5.3515 11,5.3515 Z M11,14.6666667 C8.97508333,14.6666667 7.33333333,13.0249167 7.33333333,11 C7.33333333,8.97508333 8.97508333,7.33333333 11,7.33333333 C13.0249167,7.33333333 14.6666667,8.97508333 14.6666667,11 C14.6666667,13.0249167 13.0249167,14.6666667 11,14.6666667 Z"/>
    <circle cx="16.872" cy="5.128" r="1.32"/>
  </g>
</svg>
