<svg xmlns="http://www.w3.org/2000/svg" width="24" height="24" viewBox="0 0 24 24">
  <path fill="#EAEAE5" d="M22.04052,7.78377545 C21.9528512,9.80015861 20.5501499,12.6055613 17.7447472,16.1999835 C14.8516757,19.8820745 12.4846172,21.8107888 10.468234,21.8107888 C9.24087034,21.8107888 8.18884434,20.671094 7.31215601,18.3917043 C6.78614301,16.2876523 6.17246117,14.2712691 5.64644817,12.1672171 C5.03276634,9.88782745 4.33141567,8.74813261 3.630065,8.74813261 C3.45472734,8.74813261 2.92871434,9.09880795 1.96435717,9.71248978 L1,8.48512611 C2.052026,7.60843778 3.104052,6.64408061 4.06840917,5.76739228 C5.4711105,4.54002861 6.52313651,3.92634677 7.22448717,3.83867794 C8.89019501,3.66334027 9.85455218,4.80303511 10.2052275,7.17009361 C10.6435717,9.71248978 10.9065782,11.3781976 11.0819158,11.9918795 C11.52026,14.0959315 12.046273,15.2356263 12.6599548,15.2356263 C13.098299,15.2356263 13.7996497,14.5342756 14.676338,13.1315743 C15.5530263,11.728873 15.9913705,10.6768469 16.0790393,9.97549628 C16.1667082,8.74813261 15.728364,8.13445078 14.676338,8.13445078 C14.150325,8.13445078 13.624312,8.22211961 13.098299,8.48512611 C14.150325,5.06604161 16.0790393,3.48800261 19.0597797,3.57567144 C21.1638317,3.66334027 22.1281889,5.06604161 22.04052,7.78377545 Z"/>
</svg>
